<svg width="104" height="24" viewBox="0 0 104 24" fill="none" xmlns="http://www.w3.org/2000/svg">
<path d="M93.4467 16.9041L100.927 0H90.8561L82.3999 19.0779C81.2868 21.4985 83.2945 23.9961 86.2374 23.9961H100.543L103.299 17.7745H94.1146C93.4103 17.7664 93.2889 17.2806 93.4467 16.9041Z" fill="#007A68"/>
<path d="M34.2822 6.21762C36.456 6.21762 38.1642 6.20952 40.8034 5.24611C41.8154 4.87775 50.2351 0.829825 51.9919 0H45.6893C42.876 1.67179 39.9291 3.37597 39.2652 3.69171C36.7879 4.8899 34.3106 5.13682 32.7076 5.13682H1.17828L0.700623 6.21762H17.0745L11.1767 19.5272C10.2861 21.62 12.2534 23.9961 14.8198 23.9961H19.1025L26.9798 6.21762H34.2822ZM36.2779 0H9.85704C4.29518 0 2.42909 2.31137 1.59521 4.20175H29.279C33.2662 4.20175 34.7761 1.88229 36.2779 0ZM72.0373 16.9041L79.5178 0H69.4466L60.9905 19.0779C59.8813 21.4985 61.8851 23.9961 64.8279 23.9961H79.1373L81.8899 17.7745H72.7052C72.0008 17.7664 71.8753 17.2806 72.0332 16.9041M64.1924 2.20207C63.484 1.02413 61.8851 0 59.7599 0H57.1247C55.1817 0.769106 43.5722 5.36755 42.1231 5.93831C40.852 6.44025 38.067 7.14459 35.7962 7.14459H32.999L29.6433 14.7264C25.2958 24.5143 35.2618 23.9921 35.2618 23.9921H46.7944C46.7944 23.9921 56.9263 24.4981 59.857 17.4263L63.7471 8.63828C64.751 6.47669 65.4148 3.92244 64.2045 2.20207M53.9471 8.07966C53.8661 8.25777 50.6237 15.5926 50.6237 15.5926C49.6158 17.7906 47.3935 17.7785 47.3935 17.7785H40.4796C40.4796 17.7785 38.3666 17.8514 39.3624 15.6371C39.3624 15.6371 42.8598 7.72345 43.0136 7.40771C43.2322 6.9341 43.9527 6.20952 45.4221 6.21762H52.6882C53.7163 6.21762 54.4531 6.841 53.943 8.08371" fill="#007A68"/>
</svg>
