<?xml version="1.0" encoding="UTF-8"?> <svg xmlns="http://www.w3.org/2000/svg" width="56" height="57" viewBox="0 0 56 57" fill="none"><rect y="0.5" width="56" height="56" rx="28" fill="#007A68" style="fill:#007A68;fill:color(display-p3 0.0000 0.4784 0.4078);fill-opacity:1;"></rect><g clip-path="url(#clip0_127_724)"><path d="M36.7344 26.8636H19.2641C18.6852 26.8628 18.1301 26.6276 17.7207 26.2096C17.3113 25.7916 17.081 25.2248 17.0803 24.6336V17.5007C17.081 16.9095 17.3113 16.3427 17.7207 15.9247C18.1301 15.5067 18.6852 15.2715 19.2641 15.2708H36.7344C37.3134 15.2715 37.8684 15.5067 38.2778 15.9247C38.6872 16.3427 38.9175 16.9095 38.9182 17.5007V24.6336C38.9175 25.2248 38.6872 25.7916 38.2778 26.2096C37.8684 26.6276 37.3134 26.8628 36.7344 26.8636ZM19.2648 16.1613C18.9174 16.1617 18.5843 16.3028 18.3387 16.5536C18.093 16.8044 17.9549 17.1446 17.9545 17.4993V24.6323C17.9551 24.9869 18.0933 25.3269 18.3389 25.5777C18.5845 25.8285 18.9174 25.9696 19.2648 25.9702H36.7351C37.0825 25.9696 37.4154 25.8285 37.661 25.5777C37.9066 25.3269 38.0449 24.9869 38.0454 24.6323V17.4993C38.045 17.1446 37.9069 16.8044 37.6612 16.5536C37.4156 16.3028 37.0825 16.1617 36.7351 16.1613H19.2648Z" fill="white" stroke="white" style="fill:white;fill-opacity:1;stroke:white;stroke-opacity:1;" stroke-width="0.5"></path><path d="M35.5701 26.2721C35.5127 26.2721 35.4559 26.2605 35.4029 26.2381C35.3499 26.2157 35.3018 26.1828 35.2612 26.1414C35.2207 26.1 35.1885 26.0509 35.1666 25.9967C35.1446 25.9426 35.1333 25.8846 35.1333 25.8261V15.7153C35.1333 15.597 35.1793 15.4835 35.2612 15.3999C35.3431 15.3163 35.4542 15.2693 35.5701 15.2693C35.6859 15.2693 35.797 15.3163 35.8789 15.3999C35.9608 15.4835 36.0068 15.597 36.0068 15.7153V25.8261C36.0068 25.9444 35.9608 26.0578 35.8789 26.1414C35.797 26.2251 35.6859 26.2721 35.5701 26.2721Z" fill="white" stroke="white" style="fill:white;fill-opacity:1;stroke:white;stroke-opacity:1;" stroke-width="0.5"></path><path d="M20.4299 26.2721C20.3141 26.2721 20.203 26.2251 20.1211 26.1414C20.0392 26.0578 19.9932 25.9444 19.9932 25.8261V15.7153C19.9932 15.597 20.0392 15.4835 20.1211 15.3999C20.203 15.3163 20.3141 15.2693 20.4299 15.2693C20.5458 15.2693 20.6569 15.3163 20.7388 15.3999C20.8207 15.4835 20.8667 15.597 20.8667 15.7153V25.8261C20.8667 25.9444 20.8207 26.0578 20.7388 26.1414C20.6569 26.2251 20.5458 26.2721 20.4299 26.2721Z" fill="white" stroke="white" style="fill:white;fill-opacity:1;stroke:white;stroke-opacity:1;" stroke-width="0.5"></path><path d="M33.241 16.7541H22.7588C22.643 16.7541 22.5319 16.7071 22.4499 16.6235C22.368 16.5399 22.322 16.4264 22.322 16.3081V15.1191C22.322 15.0008 22.368 14.8874 22.4499 14.8037C22.5319 14.7201 22.643 14.6731 22.7588 14.6731H25.0884C25.2042 14.6731 25.3153 14.7201 25.3972 14.8037C25.4791 14.8874 25.5252 15.0008 25.5252 15.1191V15.268H30.476V15.1191C30.476 15.0008 30.522 14.8874 30.6039 14.8037C30.6858 14.7201 30.7969 14.6731 30.9127 14.6731H33.2423C33.3582 14.6731 33.4693 14.7201 33.5512 14.8037C33.6331 14.8874 33.6791 15.0008 33.6791 15.1191V16.3081C33.6791 16.3668 33.6678 16.4249 33.6457 16.4791C33.6237 16.5333 33.5914 16.5825 33.5507 16.624C33.51 16.6654 33.4617 16.6982 33.4085 16.7206C33.3554 16.7429 33.2985 16.7543 33.241 16.7541ZM31.323 15.8622H32.8015V15.5664H31.3454V15.7153C31.3462 15.7652 31.3386 15.8149 31.323 15.8622ZM23.1956 15.8622H24.6767C24.66 15.8144 24.6515 15.764 24.6516 15.7133V15.5664H23.1956V15.8622Z" fill="white" stroke="white" style="fill:white;fill-opacity:1;stroke:white;stroke-opacity:1;" stroke-width="0.5"></path><path d="M37.8996 42.3268H18.1003C17.5837 42.3268 17.0722 42.2229 16.595 42.021C16.1178 41.8192 15.6841 41.5233 15.3189 41.1503C14.9536 40.7774 14.6638 40.3346 14.4662 39.8473C14.2685 39.3599 14.1667 38.8376 14.1667 38.3102V31.7693C14.1667 31.2418 14.2685 30.7195 14.4662 30.2322C14.6638 29.7449 14.9536 29.3021 15.3189 28.9291C15.6841 28.5561 16.1178 28.2603 16.595 28.0584C17.0722 27.8566 17.5837 27.7527 18.1003 27.7527H37.8996C38.9428 27.7527 39.9433 28.1759 40.681 28.9291C41.4187 29.6824 41.8331 30.704 41.8331 31.7693V38.3102C41.8331 38.8376 41.7313 39.3599 41.5337 39.8473C41.336 40.3346 41.0462 40.7774 40.681 41.1503C40.3157 41.5233 39.8821 41.8192 39.4048 42.021C38.9276 42.2229 38.4161 42.3268 37.8996 42.3268ZM18.1003 28.6481C17.2897 28.649 16.5126 28.9782 15.9394 29.5635C15.3663 30.1488 15.0439 30.9423 15.043 31.77V38.3109C15.0439 39.1386 15.3663 39.9321 15.9394 40.5174C16.5126 41.1026 17.2897 41.4318 18.1003 41.4327H37.8996C38.7101 41.4318 39.4872 41.1026 40.0604 40.5174C40.6336 39.9321 40.956 39.1386 40.9569 38.3109V31.77C40.956 30.9423 40.6336 30.1488 40.0604 29.5635C39.4872 28.9782 38.7101 28.649 37.8996 28.6481H18.1003Z" fill="white" stroke="white" style="fill:white;fill-opacity:1;stroke:white;stroke-opacity:1;" stroke-width="0.5"></path><path d="M24.5058 24.4847H22.7588C22.643 24.4847 22.5319 24.4377 22.4499 24.3541C22.368 24.2705 22.322 24.157 22.322 24.0388V22.2548C22.322 22.1365 22.368 22.0231 22.4499 21.9395C22.5319 21.8558 22.643 21.8088 22.7588 21.8088C22.8746 21.8088 22.9857 21.8558 23.0676 21.9395C23.1495 22.0231 23.1956 22.1365 23.1956 22.2548V23.5928H24.5058C24.6216 23.5928 24.7327 23.6398 24.8147 23.7234C24.8966 23.807 24.9426 23.9205 24.9426 24.0388C24.9426 24.157 24.8966 24.2705 24.8147 24.3541C24.7327 24.4377 24.6216 24.4847 24.5058 24.4847Z" fill="white" stroke="white" style="fill:white;fill-opacity:1;stroke:white;stroke-opacity:1;" stroke-width="0.5"></path><path d="M22.7588 20.3219C22.643 20.3219 22.5319 20.2749 22.4499 20.1913C22.368 20.1076 22.322 19.9942 22.322 19.8759V18.092C22.322 17.9737 22.368 17.8603 22.4499 17.7766C22.5319 17.693 22.643 17.646 22.7588 17.646H24.5058C24.6216 17.646 24.7327 17.693 24.8147 17.7766C24.8966 17.8603 24.9426 17.9737 24.9426 18.092C24.9426 18.2103 24.8966 18.3237 24.8147 18.4073C24.7327 18.491 24.6216 18.538 24.5058 18.538H23.1956V19.8759C23.1956 19.9942 23.1495 20.1076 23.0676 20.1913C22.9857 20.2749 22.8746 20.3219 22.7588 20.3219Z" fill="white" stroke="white" style="fill:white;fill-opacity:1;stroke:white;stroke-opacity:1;" stroke-width="0.5"></path><path d="M33.2409 24.4847H31.4939C31.3781 24.4847 31.267 24.4377 31.1851 24.3541C31.1031 24.2705 31.0571 24.157 31.0571 24.0388C31.0571 23.9205 31.1031 23.807 31.1851 23.7234C31.267 23.6398 31.3781 23.5928 31.4939 23.5928H32.8042V22.2548C32.8042 22.1365 32.8502 22.0231 32.9321 21.9395C33.014 21.8558 33.1251 21.8088 33.2409 21.8088C33.3568 21.8088 33.4679 21.8558 33.5498 21.9395C33.6317 22.0231 33.6777 22.1365 33.6777 22.2548V24.0388C33.6777 24.157 33.6317 24.2705 33.5498 24.3541C33.4679 24.4377 33.3568 24.4847 33.2409 24.4847Z" fill="white" stroke="white" style="fill:white;fill-opacity:1;stroke:white;stroke-opacity:1;" stroke-width="0.5"></path><path d="M33.2409 20.322C33.1251 20.322 33.014 20.275 32.9321 20.1913C32.8502 20.1077 32.8042 19.9943 32.8042 19.876V18.5394H31.4939C31.3781 18.5394 31.267 18.4924 31.1851 18.4088C31.1031 18.3252 31.0571 18.2117 31.0571 18.0934C31.0571 17.9752 31.1031 17.8617 31.1851 17.7781C31.267 17.6944 31.3781 17.6475 31.4939 17.6475H33.2409C33.3568 17.6475 33.4679 17.6944 33.5498 17.7781C33.6317 17.8617 33.6777 17.9752 33.6777 18.0934V19.8774C33.6773 19.9954 33.6312 20.1085 33.5493 20.1918C33.4674 20.2752 33.3565 20.322 33.2409 20.322Z" fill="white" stroke="white" style="fill:white;fill-opacity:1;stroke:white;stroke-opacity:1;" stroke-width="0.5"></path><path d="M33.241 25.9709H30.9114C30.7955 25.9709 30.6844 26.0179 30.6025 26.1016C30.5206 26.1852 30.4746 26.2986 30.4746 26.4169V28.2009C30.4746 28.2594 30.4859 28.3174 30.5079 28.3715C30.5298 28.4256 30.562 28.4748 30.6025 28.5162C30.6431 28.5576 30.6912 28.5905 30.7442 28.6129C30.7972 28.6353 30.854 28.6468 30.9114 28.6468H33.241C33.2983 28.6468 33.3551 28.6353 33.4081 28.6129C33.4611 28.5905 33.5093 28.5576 33.5498 28.5162C33.5904 28.4748 33.6225 28.4256 33.6445 28.3715C33.6664 28.3174 33.6777 28.2594 33.6777 28.2009V26.4169C33.6777 26.2986 33.6317 26.1852 33.5498 26.1016C33.4679 26.0179 33.3568 25.9709 33.241 25.9709ZM32.8042 27.7549H31.3481V26.8643H32.8042V27.7549Z" fill="white" stroke="white" style="fill:white;fill-opacity:1;stroke:white;stroke-opacity:1;" stroke-width="0.5"></path><path d="M25.0884 25.9709H22.7588C22.643 25.9709 22.5319 26.0179 22.4499 26.1016C22.368 26.1852 22.322 26.2986 22.322 26.4169V28.2009C22.322 28.2594 22.3333 28.3174 22.3553 28.3715C22.3772 28.4256 22.4094 28.4748 22.4499 28.5162C22.4905 28.5576 22.5387 28.5905 22.5916 28.6129C22.6446 28.6353 22.7014 28.6468 22.7588 28.6468H25.0884C25.1457 28.6468 25.2025 28.6353 25.2555 28.6129C25.3085 28.5905 25.3567 28.5576 25.3972 28.5162C25.4378 28.4748 25.4699 28.4256 25.4919 28.3715C25.5138 28.3174 25.5252 28.2594 25.5252 28.2009V26.4169C25.5252 26.2986 25.4791 26.1852 25.3972 26.1016C25.3153 26.0179 25.2042 25.9709 25.0884 25.9709ZM24.6516 27.7549H23.1956V26.8643H24.6516V27.7549Z" fill="white" stroke="white" style="fill:white;fill-opacity:1;stroke:white;stroke-opacity:1;" stroke-width="0.5"></path><path d="M21.0124 38.164C20.4653 38.164 19.9305 37.9983 19.4755 37.6879C19.0206 37.3775 18.6661 36.9364 18.4567 36.4202C18.2473 35.904 18.1925 35.3361 18.2993 34.7881C18.406 34.2401 18.6695 33.7368 19.0563 33.3418C19.4432 32.9467 19.9361 32.6777 20.4728 32.5687C21.0094 32.4597 21.5656 32.5156 22.0711 32.7294C22.5766 32.9432 23.0086 33.3053 23.3126 33.7698C23.6166 34.2344 23.7788 34.7805 23.7788 35.3392C23.7781 36.0882 23.4864 36.8062 22.9678 37.3358C22.4491 37.8654 21.7459 38.1633 21.0124 38.164ZM21.0124 33.4071C20.6381 33.4071 20.2721 33.5204 19.9608 33.7328C19.6496 33.9452 19.4069 34.2471 19.2637 34.6002C19.1204 34.9534 19.0829 35.342 19.156 35.717C19.229 36.0919 19.4093 36.4363 19.674 36.7066C19.9387 36.9769 20.276 37.161 20.6432 37.2356C21.0103 37.3102 21.3909 37.2719 21.7368 37.1256C22.0827 36.9793 22.3783 36.7316 22.5863 36.4137C22.7943 36.0959 22.9053 35.7222 22.9053 35.3399C22.9053 34.8271 22.7059 34.3353 22.351 33.9724C21.9961 33.6096 21.5146 33.4055 21.0124 33.405V33.4071Z" fill="white" stroke="white" style="fill:white;fill-opacity:1;stroke:white;stroke-opacity:1;" stroke-width="0.5"></path><path d="M21.0117 35.7859C20.8959 35.7859 20.7848 35.7389 20.7029 35.6553C20.621 35.5717 20.575 35.4582 20.575 35.3399V31.1772C20.575 31.0589 20.621 30.9455 20.7029 30.8618C20.7848 30.7782 20.8959 30.7312 21.0117 30.7312C21.1276 30.7312 21.2386 30.7782 21.3206 30.8618C21.4025 30.9455 21.4485 31.0589 21.4485 31.1772V35.3399C21.4485 35.4582 21.4025 35.5717 21.3206 35.6553C21.2386 35.7389 21.1276 35.7859 21.0117 35.7859Z" fill="white" stroke="white" style="fill:white;fill-opacity:1;stroke:white;stroke-opacity:1;" stroke-width="0.5"></path><path d="M21.0117 32.0194C19.563 32.0194 18.8279 31.7354 18.8279 31.1773C18.8279 30.4813 20.0154 30.3345 21.0117 30.3345C22.0079 30.3345 23.1955 30.4806 23.1955 31.1773C23.1955 31.7354 22.4576 32.0194 21.0117 32.0194Z" fill="white" stroke="white" style="fill:white;fill-opacity:1;stroke:white;stroke-opacity:1;" stroke-width="0.5"></path><path d="M19.2654 40.097C19.5872 40.097 19.848 39.8306 19.848 39.5021C19.848 39.1736 19.5872 38.9072 19.2654 38.9072C18.9437 38.9072 18.6829 39.1736 18.6829 39.5021C18.6829 39.8306 18.9437 40.097 19.2654 40.097Z" fill="white" stroke="white" style="fill:white;fill-opacity:1;stroke:white;stroke-opacity:1;" stroke-width="0.5"></path><path d="M22.7588 40.097C23.0806 40.097 23.3414 39.8306 23.3414 39.5021C23.3414 39.1736 23.0806 38.9072 22.7588 38.9072C22.4371 38.9072 22.1763 39.1736 22.1763 39.5021C22.1763 39.8306 22.4371 40.097 22.7588 40.097Z" fill="white" stroke="white" style="fill:white;fill-opacity:1;stroke:white;stroke-opacity:1;" stroke-width="0.5"></path><path d="M34.988 38.164C34.4409 38.164 33.906 37.9983 33.4511 37.6879C32.9962 37.3775 32.6416 36.9364 32.4323 36.4202C32.2229 35.904 32.1681 35.3361 32.2748 34.7881C32.3816 34.2401 32.645 33.7368 33.0319 33.3418C33.4188 32.9467 33.9117 32.6777 34.4483 32.5687C34.985 32.4597 35.5412 32.5156 36.0467 32.7294C36.5522 32.9432 36.9842 33.3053 37.2882 33.7698C37.5922 34.2344 37.7544 34.7805 37.7544 35.3392C37.7537 36.0882 37.462 36.8062 36.9434 37.3358C36.4247 37.8654 35.7215 38.1633 34.988 38.164ZM34.988 33.4071C34.6137 33.4071 34.2477 33.5204 33.9364 33.7328C33.6251 33.9452 33.3825 34.2471 33.2393 34.6002C33.096 34.9534 33.0585 35.342 33.1316 35.717C33.2046 36.0919 33.3849 36.4363 33.6496 36.7066C33.9143 36.9769 34.2516 37.161 34.6188 37.2356C34.9859 37.3102 35.3665 37.2719 35.7124 37.1256C36.0583 36.9793 36.3539 36.7316 36.5619 36.4137C36.7699 36.0959 36.8809 35.7222 36.8809 35.3399C36.8809 34.8271 36.6815 34.3353 36.3266 33.9724C35.9717 33.6096 35.4902 33.4055 34.988 33.405V33.4071Z" fill="white" stroke="white" style="fill:white;fill-opacity:1;stroke:white;stroke-opacity:1;" stroke-width="0.5"></path><path d="M34.988 35.7859C34.8722 35.7859 34.7611 35.7389 34.6792 35.6553C34.5973 35.5717 34.5513 35.4582 34.5513 35.3399V31.1772C34.5513 31.0589 34.5973 30.9455 34.6792 30.8618C34.7611 30.7782 34.8722 30.7312 34.988 30.7312C35.1039 30.7312 35.215 30.7782 35.2969 30.8618C35.3788 30.9455 35.4248 31.0589 35.4248 31.1772V35.3399C35.4248 35.4582 35.3788 35.5717 35.2969 35.6553C35.215 35.7389 35.1039 35.7859 34.988 35.7859Z" fill="white" stroke="white" style="fill:white;fill-opacity:1;stroke:white;stroke-opacity:1;" stroke-width="0.5"></path><path d="M34.988 32.0194C33.5394 32.0194 32.8042 31.7354 32.8042 31.1773C32.8042 30.4813 33.9917 30.3345 34.988 30.3345C35.9843 30.3345 37.1718 30.4806 37.1718 31.1773C37.1718 31.7354 36.4339 32.0194 34.988 32.0194Z" fill="white" stroke="white" style="fill:white;fill-opacity:1;stroke:white;stroke-opacity:1;" stroke-width="0.5"></path><path d="M33.241 40.097C33.5628 40.097 33.8236 39.8306 33.8236 39.5021C33.8236 39.1736 33.5628 38.9072 33.241 38.9072C32.9193 38.9072 32.6584 39.1736 32.6584 39.5021C32.6584 39.8306 32.9193 40.097 33.241 40.097Z" fill="white" stroke="white" style="fill:white;fill-opacity:1;stroke:white;stroke-opacity:1;" stroke-width="0.5"></path><path d="M36.7352 40.097C37.0569 40.097 37.3177 39.8306 37.3177 39.5021C37.3177 39.1736 37.0569 38.9072 36.7352 38.9072C36.4134 38.9072 36.1526 39.1736 36.1526 39.5021C36.1526 39.8306 36.4134 40.097 36.7352 40.097Z" fill="white" stroke="white" style="fill:white;fill-opacity:1;stroke:white;stroke-opacity:1;" stroke-width="0.5"></path><path d="M30.3289 33.4071C30.2131 33.4071 30.102 33.3601 30.0201 33.2765C29.9382 33.1928 29.8922 33.0794 29.8922 32.9611V32.2159H26.1072V32.959C26.1072 33.0773 26.0612 33.1907 25.9792 33.2744C25.8973 33.358 25.7862 33.405 25.6704 33.405C25.5546 33.405 25.4435 33.358 25.3616 33.2744C25.2797 33.1907 25.2336 33.0773 25.2336 32.959V31.77C25.2336 31.7114 25.245 31.6534 25.2669 31.5993C25.2889 31.5452 25.321 31.496 25.3616 31.4546C25.4021 31.4132 25.4503 31.3803 25.5033 31.3579C25.5563 31.3355 25.6131 31.324 25.6704 31.324H30.3289C30.3863 31.324 30.4431 31.3355 30.4961 31.3579C30.5491 31.3803 30.5972 31.4132 30.6378 31.4546C30.6783 31.496 30.7105 31.5452 30.7325 31.5993C30.7544 31.6534 30.7657 31.7114 30.7657 31.77V32.959C30.766 33.0178 30.7549 33.076 30.733 33.1303C30.7112 33.1847 30.6791 33.2341 30.6385 33.2757C30.5979 33.3173 30.5497 33.3504 30.4966 33.3729C30.4434 33.3955 30.3865 33.4071 30.3289 33.4071Z" fill="white" stroke="white" style="fill:white;fill-opacity:1;stroke:white;stroke-opacity:1;" stroke-width="0.5"></path><path d="M30.3289 38.164H25.6704C25.5546 38.164 25.4435 38.1171 25.3616 38.0334C25.2797 37.9498 25.2336 37.8363 25.2336 37.7181V36.529C25.2336 36.4107 25.2797 36.2973 25.3616 36.2136C25.4435 36.13 25.5546 36.083 25.6704 36.083C25.7862 36.083 25.8973 36.13 25.9792 36.2136C26.0612 36.2973 26.1072 36.4107 26.1072 36.529V37.2721H29.8922V36.529C29.8922 36.4107 29.9382 36.2973 30.0201 36.2136C30.102 36.13 30.2131 36.083 30.3289 36.083C30.4448 36.083 30.5559 36.13 30.6378 36.2136C30.7197 36.2973 30.7657 36.4107 30.7657 36.529V37.7181C30.7657 37.8363 30.7197 37.9498 30.6378 38.0334C30.5559 38.1171 30.4448 38.164 30.3289 38.164Z" fill="white" stroke="white" style="fill:white;fill-opacity:1;stroke:white;stroke-opacity:1;" stroke-width="0.5"></path><path d="M28.0001 34.4481C28.3218 34.4481 28.5826 34.1817 28.5826 33.8532C28.5826 33.5246 28.3218 33.2583 28.0001 33.2583C27.6783 33.2583 27.4175 33.5246 27.4175 33.8532C27.4175 34.1817 27.6783 34.4481 28.0001 34.4481Z" fill="white" stroke="white" style="fill:white;fill-opacity:1;stroke:white;stroke-opacity:1;" stroke-width="0.5"></path><path d="M28.0001 36.232C28.3218 36.232 28.5826 35.9657 28.5826 35.6371C28.5826 35.3086 28.3218 35.0422 28.0001 35.0422C27.6783 35.0422 27.4175 35.3086 27.4175 35.6371C27.4175 35.9657 27.6783 36.232 28.0001 36.232Z" fill="white" stroke="white" style="fill:white;fill-opacity:1;stroke:white;stroke-opacity:1;" stroke-width="0.5"></path></g><defs><clipPath id="clip0_127_724"><rect width="28" height="28" fill="white" style="fill:white;fill-opacity:1;" transform="translate(14 14.5)"></rect></clipPath></defs></svg> 