<?xml version="1.0" encoding="UTF-8"?> <svg xmlns="http://www.w3.org/2000/svg" width="56" height="57" viewBox="0 0 56 57" fill="none"><rect y="0.5" width="56" height="56" rx="28" fill="#007A68" style="fill:#007A68;fill:color(display-p3 0.0000 0.4784 0.4078);fill-opacity:1;"></rect><g clip-path="url(#clip0_127_661)"><path d="M32.1294 36.5038H23.8204C23.7076 36.4993 23.601 36.4513 23.5228 36.3699C23.4446 36.2885 23.4009 36.1801 23.4009 36.0672C23.4009 35.9543 23.4446 35.8458 23.5228 35.7645C23.601 35.6831 23.7076 35.6351 23.8204 35.6306H32.1294C32.2422 35.6351 32.3489 35.6831 32.4271 35.7645C32.5053 35.8458 32.5489 35.9543 32.5489 36.0672C32.5489 36.1801 32.5053 36.2885 32.4271 36.3699C32.3489 36.4513 32.2422 36.4993 32.1294 36.5038Z" fill="white" stroke="white" style="fill:white;fill-opacity:1;stroke:white;stroke-opacity:1;" stroke-width="0.5"></path><path d="M37.3138 33.0112C37.198 33.0111 37.087 32.965 37.0053 32.883C36.9235 32.8011 36.8775 32.6901 36.8775 32.5743V26.1715C36.8766 25.3614 36.5544 24.5847 35.9815 24.0119C35.4087 23.439 34.632 23.1168 33.8219 23.1159H22.1789C21.3688 23.1168 20.5921 23.439 20.0192 24.0119C19.4464 24.5847 19.1242 25.3614 19.1233 26.1715V32.5716C19.1256 32.6304 19.116 32.689 19.0951 32.744C19.0743 32.799 19.0425 32.8493 19.0017 32.8917C18.9609 32.9341 18.912 32.9679 18.8579 32.9909C18.8038 33.014 18.7455 33.0259 18.6867 33.0259C18.6278 33.0259 18.5696 33.014 18.5155 32.9909C18.4613 32.9679 18.4124 32.9341 18.3716 32.8917C18.3309 32.8493 18.2991 32.799 18.2782 32.744C18.2573 32.689 18.2478 32.6304 18.2501 32.5716V26.1688C18.2514 25.1272 18.6657 24.1286 19.4022 23.3921C20.1388 22.6556 21.1373 22.2413 22.1789 22.24H33.8205C34.8621 22.2413 35.8606 22.6556 36.5971 23.3921C37.3337 24.1286 37.748 25.1272 37.7493 26.1688V32.5716C37.7497 32.6291 37.7387 32.6861 37.717 32.7393C37.6953 32.7925 37.6632 32.841 37.6228 32.8818C37.5823 32.9227 37.5342 32.9551 37.4812 32.9773C37.4282 32.9995 37.3713 33.0111 37.3138 33.0112Z" fill="white" stroke="white" style="fill:white;fill-opacity:1;stroke:white;stroke-opacity:1;" stroke-width="0.5"></path><path d="M33.479 31.3756C33.3876 31.3756 33.2985 31.3469 33.2243 31.2935C33.1501 31.2402 33.0944 31.1649 33.0652 31.0783C33.036 30.9917 33.0347 30.8981 33.0615 30.8107C33.0883 30.7233 33.1418 30.6465 33.2145 30.5911C33.5282 30.3543 33.7603 30.0257 33.8786 29.6509C33.997 29.2761 33.9958 28.8738 33.8751 28.4997C33.7543 28.1257 33.5202 27.7985 33.205 27.5637C32.8899 27.3288 32.5095 27.1978 32.1166 27.189C31.7236 27.1802 31.3377 27.294 31.0124 27.5145C30.687 27.735 30.4384 28.0514 30.3011 28.4196C30.1637 28.7879 30.1444 29.1897 30.2459 29.5694C30.3473 29.9491 30.5645 30.2878 30.8672 30.5385C30.9474 30.6146 30.9958 30.7183 31.0026 30.8286C31.0095 30.939 30.9742 31.0478 30.9039 31.1332C30.8336 31.2185 30.7336 31.2741 30.624 31.2886C30.5144 31.3032 30.4034 31.2756 30.3133 31.2115C29.8715 30.8452 29.5547 30.3504 29.4068 29.7959C29.2589 29.2414 29.2873 28.6545 29.4881 28.1169C29.6888 27.5792 30.052 27.1174 30.5271 26.7954C31.0022 26.4735 31.5657 26.3074 32.1395 26.3203C32.7133 26.3331 33.2688 26.5243 33.7291 26.8671C34.1893 27.21 34.5314 27.6877 34.7078 28.2338C34.8843 28.7799 34.8864 29.3674 34.7139 29.9148C34.5413 30.4621 34.2027 30.9422 33.7449 31.2884C33.6682 31.3458 33.5748 31.3764 33.479 31.3756Z" fill="white" stroke="white" style="fill:white;fill-opacity:1;stroke:white;stroke-opacity:1;" stroke-width="0.5"></path><path d="M22.4676 31.3341C22.367 31.3349 22.2691 31.3009 22.1907 31.2379C21.7474 30.8817 21.4247 30.3975 21.2667 29.8512C21.1086 29.305 21.1228 28.7233 21.3074 28.1854C21.4919 27.6475 21.8378 27.1797 22.298 26.8455C22.7581 26.5114 23.3101 26.3273 23.8786 26.3182C24.4472 26.3092 25.0048 26.4757 25.4753 26.795C25.9458 27.1144 26.3064 27.5711 26.5079 28.1028C26.7094 28.6346 26.7421 29.2155 26.6015 29.7665C26.4608 30.3175 26.1537 30.8117 25.722 31.1818C25.6785 31.2191 25.6281 31.2475 25.5736 31.2654C25.5191 31.2832 25.4616 31.2901 25.4045 31.2858C25.3473 31.2814 25.2916 31.2658 25.2404 31.2399C25.1893 31.214 25.1438 31.1782 25.1064 31.1347C25.0691 31.0912 25.0407 31.0408 25.0229 30.9863C25.005 30.9318 24.9981 30.8743 25.0025 30.8172C25.0069 30.76 25.0225 30.7043 25.0484 30.6532C25.0743 30.602 25.11 30.5565 25.1535 30.5192C25.4495 30.2662 25.6603 29.928 25.7571 29.5508C25.8538 29.1737 25.8319 28.7758 25.6942 28.4116C25.5566 28.0473 25.3099 27.7344 24.9879 27.5155C24.6658 27.2966 24.2841 27.1824 23.8947 27.1884C23.5054 27.1945 23.1274 27.3204 22.8123 27.5492C22.4972 27.778 22.2603 28.0984 22.134 28.4667C22.0077 28.8351 21.9981 29.2334 22.1065 29.6074C22.2149 29.9814 22.436 30.3128 22.7397 30.5565C22.8102 30.6134 22.8613 30.6909 22.8859 30.778C22.9104 30.8652 22.9073 30.9579 22.8769 31.0433C22.8464 31.1286 22.7903 31.2024 22.7161 31.2543C22.6419 31.3063 22.5534 31.334 22.4628 31.3334L22.4676 31.3341Z" fill="white" stroke="white" style="fill:white;fill-opacity:1;stroke:white;stroke-opacity:1;" stroke-width="0.5"></path><path d="M28.5822 33.5936H27.4183C27.3025 33.5936 27.1914 33.5476 27.1096 33.4657C27.0277 33.3839 26.9817 33.2728 26.9817 33.157C26.9817 33.0412 27.0277 32.9302 27.1096 32.8483C27.1914 32.7665 27.3025 32.7205 27.4183 32.7205H28.5822C28.698 32.7205 28.809 32.7665 28.8909 32.8483C28.9728 32.9302 29.0188 33.0412 29.0188 33.157C29.0188 33.2728 28.9728 33.3839 28.8909 33.4657C28.809 33.5476 28.698 33.5936 28.5822 33.5936Z" fill="white" stroke="white" style="fill:white;fill-opacity:1;stroke:white;stroke-opacity:1;" stroke-width="0.5"></path><path d="M32.6565 24.8622H31.4925C31.3798 24.8577 31.2731 24.8097 31.1949 24.7283C31.1167 24.6469 31.073 24.5385 31.073 24.4256C31.073 24.3127 31.1167 24.2042 31.1949 24.1229C31.2731 24.0415 31.3798 23.9935 31.4925 23.989H32.6565C32.7693 23.9935 32.8759 24.0415 32.9541 24.1229C33.0323 24.2042 33.076 24.3127 33.076 24.4256C33.076 24.5385 33.0323 24.6469 32.9541 24.7283C32.8759 24.8097 32.7693 24.8577 32.6565 24.8622Z" fill="white" stroke="white" style="fill:white;fill-opacity:1;stroke:white;stroke-opacity:1;" stroke-width="0.5"></path><path d="M28.5823 24.862H27.4183C27.3055 24.8575 27.1989 24.8096 27.1207 24.7282C27.0425 24.6468 26.9988 24.5383 26.9988 24.4254C26.9988 24.3126 27.0425 24.2041 27.1207 24.1227C27.1989 24.0413 27.3055 23.9934 27.4183 23.9889H28.5823C28.6411 23.9865 28.6997 23.9961 28.7547 24.017C28.8097 24.0379 28.86 24.0696 28.9024 24.1104C28.9448 24.1512 28.9786 24.2001 29.0016 24.2542C29.0247 24.3084 29.0366 24.3666 29.0366 24.4254C29.0366 24.4843 29.0247 24.5425 29.0016 24.5967C28.9786 24.6508 28.9448 24.6997 28.9024 24.7405C28.86 24.7812 28.8097 24.813 28.7547 24.8339C28.6997 24.8548 28.6411 24.8644 28.5823 24.862Z" fill="white" stroke="white" style="fill:white;fill-opacity:1;stroke:white;stroke-opacity:1;" stroke-width="0.5"></path><path d="M24.5073 24.8622H23.3434C23.2306 24.8577 23.1239 24.8097 23.0457 24.7283C22.9675 24.6469 22.9238 24.5385 22.9238 24.4256C22.9238 24.3127 22.9675 24.2042 23.0457 24.1229C23.1239 24.0415 23.2306 23.9935 23.3434 23.989H24.5073C24.6201 23.9935 24.7268 24.0415 24.805 24.1229C24.8832 24.2042 24.9268 24.3127 24.9268 24.4256C24.9268 24.5385 24.8832 24.6469 24.805 24.7283C24.7268 24.8097 24.6201 24.8577 24.5073 24.8622Z" fill="white" stroke="white" style="fill:white;fill-opacity:1;stroke:white;stroke-opacity:1;" stroke-width="0.5"></path><path d="M14.6113 42.3242C14.5543 42.3242 14.4978 42.3129 14.4451 42.2909C14.3921 42.2691 14.3439 42.2371 14.3033 42.1966C14.2626 42.1562 14.2304 42.1081 14.2084 42.0552C14.1864 42.0022 14.1751 41.9455 14.175 41.8881C14.175 41.8308 14.1863 41.774 14.2083 41.7211C14.6044 40.7614 15.1701 39.2879 15.6686 37.9875L15.7545 37.766C15.6853 37.3651 15.5703 36.8887 15.4381 36.3444C15.0391 34.9258 14.8106 33.4646 14.7574 31.9919C14.7574 29.5518 15.7649 25.5676 18.5422 24.5948C18.5969 24.5731 18.6554 24.5626 18.7143 24.5641C18.7732 24.5656 18.8311 24.5789 18.8847 24.6034C18.9383 24.6278 18.9863 24.6628 19.026 24.7063C19.0657 24.7498 19.0962 24.8008 19.1157 24.8564C19.1352 24.912 19.1432 24.9709 19.1394 25.0296C19.1355 25.0884 19.1198 25.1457 19.0932 25.1983C19.0666 25.2508 19.0296 25.2974 18.9846 25.3353C18.9395 25.3732 18.8872 25.4016 18.8309 25.4188C16.4988 26.2351 15.6306 29.8842 15.6306 31.9919C15.6855 33.3945 15.9055 34.7857 16.2863 36.1367C16.4365 36.753 16.5633 37.2854 16.636 37.7473C16.6471 37.8219 16.639 37.8982 16.6124 37.9688L16.485 38.2998C15.9595 39.668 15.4166 41.0833 15.0157 42.0534C14.9827 42.1336 14.9267 42.2021 14.8547 42.2503C14.7827 42.2985 14.698 42.3242 14.6113 42.3242ZM19.8509 42.3242C19.8175 42.3242 19.7843 42.3204 19.7518 42.3131C19.696 42.3002 19.6432 42.2764 19.5966 42.2431C19.5499 42.2098 19.5103 42.1677 19.48 42.1191C19.4496 42.0704 19.4291 42.0163 19.4197 41.9598C19.4103 41.9033 19.4121 41.8454 19.425 41.7896C19.4659 41.611 19.4943 41.4572 19.5282 41.3049C19.6531 40.6714 19.8149 40.0458 20.0129 39.4312C20.0238 39.3969 20.0387 39.3639 20.0572 39.3329C20.5871 38.6008 21.2001 37.9325 21.8838 37.3415C22.7339 36.6304 23.4679 35.791 24.0594 34.8537C24.4665 34.0041 25.3057 31.2607 24.7774 30.1196C24.7399 30.0229 24.6801 29.9365 24.6028 29.8673C24.5256 29.7981 24.4331 29.7481 24.3329 29.7215C23.7706 29.5733 23.4826 30.0559 22.9176 31.2773C22.3927 32.4129 21.7405 33.8268 20.2864 34.3496C20.1955 34.3823 20.0964 34.384 20.0045 34.3543C19.9126 34.3246 19.8332 34.2653 19.7787 34.1857C19.7241 34.106 19.6975 34.0105 19.703 33.9141C19.7086 33.8177 19.746 33.7259 19.8093 33.653C19.3825 33.5869 18.9779 33.4188 18.6299 33.163C18.2819 32.9073 18.0008 32.5713 17.8103 32.1837C17.7648 32.0795 17.7617 31.9617 17.8016 31.8552C17.8416 31.7488 17.9215 31.6621 18.0243 31.6136C18.1272 31.5651 18.2449 31.5586 18.3524 31.5955C18.46 31.6324 18.5489 31.7098 18.6003 31.8112C18.9126 32.471 19.5593 32.8041 20.7635 32.919C20.8044 32.923 20.8445 32.933 20.8826 32.9488C21.4133 32.3458 21.835 31.6551 22.1289 30.9076C22.6447 29.7914 23.2285 28.5236 24.5586 28.8732C24.7832 28.9327 24.9914 29.0426 25.1672 29.1945C25.3431 29.3463 25.4821 29.5363 25.5737 29.7498C26.2793 31.2732 25.2759 34.3427 24.8508 35.2283C24.2188 36.2653 23.4212 37.1918 22.4896 37.9709C21.8789 38.5031 21.324 39.0961 20.8334 39.7407C20.6504 40.3097 20.5008 40.8888 20.3854 41.4752C20.3528 41.6366 20.3203 41.7979 20.2767 41.9842C20.255 42.0808 20.2009 42.1672 20.1235 42.229C20.0461 42.2908 19.9499 42.3244 19.8509 42.3242Z" fill="white" stroke="white" style="fill:white;fill-opacity:1;stroke:white;stroke-opacity:1;" stroke-width="0.5"></path><path d="M41.3878 42.3242C41.3013 42.3242 41.2168 42.2985 41.145 42.2504C41.0731 42.2024 41.0171 42.134 40.9841 42.0541C40.5763 41.0668 39.9981 39.5615 39.4878 38.2292L39.3881 37.9696C39.3615 37.8989 39.3534 37.8227 39.3645 37.748C39.4338 37.2862 39.564 36.7537 39.7142 36.1381C40.0944 34.7868 40.3143 33.3954 40.3692 31.9926C40.3692 29.8849 39.5009 26.2366 37.1689 25.4195C37.1126 25.4023 37.0603 25.3739 37.0152 25.336C36.9702 25.2981 36.9332 25.2515 36.9066 25.199C36.88 25.1465 36.8643 25.0891 36.8604 25.0304C36.8566 24.9716 36.8646 24.9127 36.8841 24.8571C36.9036 24.8016 36.934 24.7505 36.9737 24.707C37.0134 24.6635 37.0615 24.6285 37.1151 24.6041C37.1687 24.5797 37.2266 24.5663 37.2855 24.5648C37.3443 24.5634 37.4029 24.5738 37.4576 24.5955C40.2349 25.5649 41.2424 29.5525 41.2424 31.9926C41.1894 33.4653 40.9612 34.9265 40.5624 36.3452C40.4295 36.8894 40.3131 37.3658 40.246 37.7667L40.3041 37.9176C40.8124 39.2429 41.3885 40.7448 41.7915 41.7225C41.8134 41.7754 41.8247 41.8322 41.8247 41.8895C41.8247 41.9469 41.8134 42.0036 41.7914 42.0566C41.7694 42.1095 41.7372 42.1576 41.6965 42.1981C41.6559 42.2385 41.6077 42.2706 41.5547 42.2923C41.5017 42.3139 41.445 42.3248 41.3878 42.3242ZM36.1482 42.3242C36.0495 42.3242 35.9537 42.2907 35.8765 42.2292C35.7993 42.1677 35.7452 42.0818 35.7231 41.9856C35.6809 41.8014 35.6483 41.6394 35.6158 41.4822C35.5002 40.8941 35.3499 40.3133 35.1657 39.7429C34.6756 39.0979 34.1208 38.5046 33.5101 37.9724C32.5788 37.1935 31.7814 36.2672 31.1497 35.2304C30.7238 34.3448 29.7205 31.278 30.4268 29.752C30.5184 29.5384 30.6574 29.3485 30.8332 29.1966C31.0091 29.0447 31.2172 28.9349 31.4419 28.8754C32.7699 28.5292 33.3543 29.7935 33.8709 30.9097C34.165 31.6572 34.5867 32.3478 35.1172 32.9509C35.1555 32.9353 35.1959 32.9252 35.237 32.9212C36.4405 32.8028 37.0872 32.4697 37.3994 31.8133C37.4509 31.7119 37.5398 31.6345 37.6474 31.5976C37.7549 31.5608 37.8726 31.5672 37.9755 31.6157C38.0783 31.6642 38.1582 31.7509 38.1982 31.8573C38.2381 31.9638 38.235 32.0816 38.1895 32.1858C37.9992 32.5735 37.718 32.9094 37.37 33.1651C37.022 33.4208 36.6173 33.5887 36.1905 33.6544C36.2542 33.7273 36.2918 33.8192 36.2976 33.9158C36.3033 34.0123 36.2768 34.1081 36.2221 34.1879C36.1675 34.2678 36.0879 34.3272 35.9958 34.3568C35.9037 34.3865 35.8044 34.3847 35.7134 34.3517C34.2593 33.8289 33.6064 32.4129 33.0822 31.2787C32.5179 30.0566 32.2285 29.574 31.6669 29.7236C31.5667 29.7501 31.4741 29.8001 31.3969 29.8693C31.3196 29.9385 31.2598 30.025 31.2224 30.1217C30.6934 31.2649 31.5319 34.0069 31.9404 34.8558C32.5317 35.793 33.2657 36.6322 34.116 37.3429C34.7996 37.9344 35.4125 38.6028 35.9426 39.335C35.9612 39.3659 35.9761 39.3989 35.9869 39.4334C36.1862 40.0494 36.3492 40.6767 36.4751 41.3119C36.5062 41.4642 36.5367 41.6172 36.5775 41.7966C36.5924 41.8606 36.5925 41.9271 36.578 41.9912C36.5635 42.0553 36.5347 42.1153 36.4937 42.1667C36.4528 42.2181 36.4008 42.2596 36.3415 42.2881C36.2823 42.3165 36.2174 42.3312 36.1517 42.3311L36.1482 42.3242Z" fill="white" stroke="white" style="fill:white;fill-opacity:1;stroke:white;stroke-opacity:1;" stroke-width="0.5"></path><path d="M27.9992 23.1158C27.8836 23.1156 27.7727 23.0696 27.691 22.9878C27.6092 22.906 27.5632 22.7952 27.563 22.6795V20.3509C27.5675 20.2382 27.6155 20.1315 27.6968 20.0533C27.7782 19.9751 27.8867 19.9314 27.9996 19.9314C28.1124 19.9314 28.2209 19.9751 28.3023 20.0533C28.3837 20.1315 28.4316 20.2382 28.4361 20.3509V22.6795C28.436 22.7953 28.3898 22.9062 28.3079 22.988C28.226 23.0698 28.115 23.1158 27.9992 23.1158Z" fill="white" stroke="white" style="fill:white;fill-opacity:1;stroke:white;stroke-opacity:1;" stroke-width="0.5"></path><path d="M27.9999 19.3311C28.2016 19.3311 28.3988 19.3909 28.5666 19.5029C28.7343 19.615 28.865 19.7743 28.9422 19.9607C29.0194 20.1471 29.0396 20.3521 29.0002 20.55C28.9609 20.7478 28.8637 20.9295 28.7211 21.0722C28.5785 21.2148 28.3967 21.312 28.1989 21.3513C28.001 21.3907 27.796 21.3705 27.6096 21.2933C27.4232 21.2161 27.2639 21.0854 27.1519 20.9176C27.0398 20.7499 26.98 20.5527 26.98 20.351C26.98 20.2171 27.0064 20.0844 27.0576 19.9607C27.1089 19.8369 27.184 19.7245 27.2787 19.6298C27.3734 19.5351 27.4859 19.46 27.6096 19.4087C27.7333 19.3574 27.866 19.3311 27.9999 19.3311Z" fill="white" stroke="white" style="fill:white;fill-opacity:1;stroke:white;stroke-opacity:1;" stroke-width="0.5"></path><path d="M33.2381 20.7873C33.1223 20.7871 33.0114 20.741 32.9296 20.659C32.8478 20.5771 32.8019 20.4661 32.8019 20.3503C32.7867 19.0867 32.2741 17.8799 31.3751 16.9917C30.4762 16.1035 29.2634 15.6054 27.9996 15.6054C26.7359 15.6054 25.5231 16.1035 24.6241 16.9917C23.7252 17.8799 23.2125 19.0867 23.1974 20.3503C23.1974 20.4661 23.1514 20.5772 23.0695 20.659C22.9876 20.7409 22.8766 20.7869 22.7608 20.7869C22.645 20.7869 22.534 20.7409 22.4521 20.659C22.3702 20.5772 22.3242 20.4661 22.3242 20.3503C22.3674 18.8738 22.9842 17.4723 24.0439 16.4432C25.1035 15.414 26.5225 14.8384 27.9996 14.8384C29.4768 14.8384 30.8957 15.414 31.9554 16.4432C33.015 17.4723 33.6319 18.8738 33.675 20.3503C33.675 20.4077 33.6637 20.4645 33.6418 20.5175C33.6198 20.5705 33.5876 20.6187 33.5471 20.6593C33.5065 20.6999 33.4583 20.732 33.4053 20.754C33.3523 20.7759 33.2955 20.7873 33.2381 20.7873Z" fill="white" stroke="white" style="fill:white;fill-opacity:1;stroke:white;stroke-opacity:1;" stroke-width="0.5"></path><path d="M30.9102 20.7873C30.7946 20.7871 30.6837 20.7411 30.602 20.6593C30.5202 20.5775 30.4742 20.4667 30.474 20.3511C30.474 19.6949 30.2133 19.0656 29.7494 18.6017C29.2854 18.1377 28.6561 17.877 28 17.877C27.3438 17.877 26.7146 18.1377 26.2506 18.6017C25.7866 19.0656 25.526 19.6949 25.526 20.3511C25.5215 20.4638 25.4735 20.5705 25.3921 20.6487C25.3108 20.7269 25.2023 20.7706 25.0894 20.7706C24.9765 20.7706 24.8681 20.7269 24.7867 20.6487C24.7053 20.5705 24.6573 20.4638 24.6528 20.3511C24.6528 19.4633 25.0055 18.612 25.6332 17.9843C26.2609 17.3566 27.1123 17.0039 28 17.0039C28.8877 17.0039 29.7391 17.3566 30.3668 17.9843C30.9945 18.612 31.3471 19.4633 31.3471 20.3511C31.3469 20.4668 31.3008 20.5778 31.2189 20.6596C31.137 20.7413 31.026 20.7873 30.9102 20.7873Z" fill="white" stroke="white" style="fill:white;fill-opacity:1;stroke:white;stroke-opacity:1;" stroke-width="0.5"></path></g><defs><clipPath id="clip0_127_661"><rect width="28" height="27.9958" fill="white" style="fill:white;fill-opacity:1;" transform="translate(14 14.5022)"></rect></clipPath></defs></svg> 