<?xml version="1.0" encoding="UTF-8"?> <svg xmlns="http://www.w3.org/2000/svg" width="56" height="57" viewBox="0 0 56 57" fill="none"><rect y="0.5" width="56" height="56" rx="28" fill="#007A68" style="fill:#007A68;fill:color(display-p3 0.0000 0.4784 0.4078);fill-opacity:1;"></rect><g clip-path="url(#clip0_127_713)"><path d="M27.9997 42.5C27.965 42.5 27.9304 42.4967 27.8963 42.4901C24.5702 41.8505 21.5709 40.0721 19.4141 37.4607C17.2573 34.8493 16.0777 31.568 16.0781 28.181V18.6114C16.0781 18.4949 16.1153 18.3815 16.1843 18.2876C16.2533 18.1938 16.3504 18.1244 16.4616 18.0897L27.819 14.5305C27.8773 14.511 27.9383 14.5007 27.9997 14.5C28.061 14.5 28.1219 14.5103 28.1798 14.5305L39.5414 18.089C39.6525 18.1238 39.7496 18.1932 39.8186 18.287C39.8876 18.3808 39.9248 18.4942 39.9249 18.6107V28.181C39.9251 31.5684 38.7449 34.8501 36.5874 37.4615C34.4299 40.073 31.4299 41.8511 28.1032 42.4901C28.0691 42.4967 28.0345 42.5 27.9997 42.5ZM17.1719 19.0126V28.181C17.1754 31.2945 18.2554 34.3109 20.2289 36.7191C22.2023 39.1272 24.9477 40.7789 27.9997 41.3942C31.0518 40.7789 33.7972 39.1272 35.7706 36.7191C37.7441 34.3109 38.8241 31.2945 38.8276 28.181V19.0126L27.9997 15.62L17.1719 19.0126Z" fill="white" style="fill:white;fill-opacity:1;"></path><path d="M28.0011 39.3653C27.9567 39.3652 27.9124 39.3598 27.8693 39.349C25.3782 38.7262 23.1665 37.2893 21.5851 35.2663C20.0037 33.2433 19.1433 30.7501 19.1404 28.1823V20.8605C19.1404 20.744 19.1776 20.6306 19.2465 20.5367C19.3155 20.4429 19.4127 20.3735 19.5239 20.3388L27.8367 17.7344C27.9431 17.7012 28.0571 17.7012 28.1635 17.7344L36.4756 20.3388C36.5867 20.3735 36.6839 20.4429 36.7529 20.5367C36.8219 20.6306 36.8591 20.744 36.8591 20.8605V28.1823C36.8575 30.0585 36.3978 31.9059 35.52 33.564C35.449 33.6864 35.3333 33.7766 35.1972 33.8155C35.0611 33.8545 34.9153 33.8392 34.7902 33.7728C34.6652 33.7065 34.5707 33.5943 34.5266 33.4598C34.4826 33.3253 34.4923 33.179 34.5539 33.0515C35.3481 31.5516 35.764 29.8803 35.7653 28.183V21.2603L28.0011 18.8296L20.2342 21.2603V28.1802C20.2306 30.4823 20.9914 32.7205 22.397 34.5436C23.8027 36.3668 25.7738 37.6717 28.0011 38.2538C29.2686 37.9213 30.4611 37.3504 31.515 36.5717C31.6317 36.4857 31.7778 36.4496 31.9212 36.4713C32.0646 36.493 32.1935 36.5708 32.2795 36.6876C32.3655 36.8043 32.4016 36.9505 32.3799 37.0939C32.3581 37.2372 32.2803 37.3661 32.1636 37.4521C30.9572 38.3427 29.587 38.9868 28.1316 39.3476C28.089 39.3587 28.0452 39.3647 28.0011 39.3653Z" fill="white" style="fill:white;fill-opacity:1;"></path><path d="M27.0067 32.6157C26.9349 32.6158 26.8638 32.6016 26.7975 32.5741C26.7312 32.5467 26.671 32.5063 26.6204 32.4555L22.9584 28.7935C22.9076 28.7427 22.8673 28.6825 22.8398 28.6161C22.8123 28.5498 22.7981 28.4786 22.7981 28.4068C22.7981 28.335 22.8123 28.2639 22.8398 28.1975C22.8673 28.1312 22.9076 28.0709 22.9584 28.0201L24.8149 26.1636C24.8657 26.1128 24.9259 26.0725 24.9923 26.045C25.0586 26.0175 25.1298 26.0033 25.2016 26.0033C25.2734 26.0033 25.3445 26.0175 25.4109 26.045C25.4772 26.0725 25.5375 26.1128 25.5883 26.1636L27.006 27.5813L30.4085 24.1788C30.5111 24.0764 30.6502 24.0188 30.7952 24.0188C30.9402 24.0188 31.0793 24.0764 31.1819 24.1788L33.0384 26.0353C33.0892 26.0861 33.1295 26.1464 33.157 26.2127C33.1845 26.2791 33.1987 26.3502 33.1987 26.422C33.1987 26.4938 33.1845 26.5649 33.157 26.6313C33.1295 26.6976 33.0892 26.7579 33.0384 26.8087L27.3895 32.4576C27.2877 32.5586 27.1501 32.6154 27.0067 32.6157ZM24.1181 28.4065L27.0067 31.2951L31.8822 26.4195L30.7991 25.3371L27.3966 28.7396C27.294 28.8421 27.1549 28.8996 27.0099 28.8996C26.8649 28.8996 26.7258 28.8421 26.6232 28.7396L25.2055 27.3219L24.1181 28.4065Z" fill="white" style="fill:white;fill-opacity:1;"></path><path d="M33.6445 35.8884C33.5178 35.8885 33.3951 35.8448 33.2971 35.7645C33.1991 35.6843 33.1321 35.5725 33.1073 35.4483C33.0825 35.3241 33.1015 35.1952 33.1612 35.0835C33.2208 34.9718 33.3173 34.8842 33.4343 34.8357C33.5513 34.7872 33.6814 34.7807 33.8026 34.8175C33.9238 34.8542 34.0285 34.9318 34.0989 35.0371C34.1693 35.1424 34.2009 35.2688 34.1885 35.3948C34.1761 35.5209 34.1204 35.6387 34.0308 35.7282C33.9282 35.8305 33.7893 35.888 33.6445 35.8884Z" fill="white" style="fill:white;fill-opacity:1;"></path></g><defs><clipPath id="clip0_127_713"><rect width="23.844" height="28" fill="white" style="fill:white;fill-opacity:1;" transform="translate(16.0781 14.5)"></rect></clipPath></defs></svg> 