<?xml version="1.0" encoding="UTF-8"?> <svg xmlns="http://www.w3.org/2000/svg" width="1416" height="231" viewBox="0 0 1416 231" fill="none"><g opacity="0.05" clip-path="url(#clip0_86_1392)"><path d="M1204.77 352.344L1358.41 0.174805H1151.57L977.9 397.631C955.038 448.06 996.273 500.093 1056.71 500.093H1350.51L1407.13 370.477H1218.49C1204.03 370.308 1201.53 360.187 1204.77 352.344Z" fill="white" style="fill:white;fill-opacity:1;"></path><path d="M-10.3174 129.709C34.325 129.709 69.4092 129.54 123.612 109.469C144.396 101.795 317.315 17.4628 353.396 0.174805H223.956C166.178 35.0038 105.656 70.5075 92.0211 77.0854C41.1434 102.048 -9.73621 107.192 -42.6558 107.192H-690.19L-700 129.709H-363.721L-484.849 406.991C-503.138 450.591 -462.734 500.094 -410.027 500.094H-322.071L-160.293 129.709H-10.3174ZM30.6673 0.174805H-511.95C-626.177 0.174805 -664.502 48.3283 -681.627 87.7113H-113.071C-31.1835 87.7113 -0.173889 39.3892 30.6673 0.174805ZM765.076 352.344L918.709 0.174805H711.872L538.203 397.631C515.424 448.06 556.575 500.094 617.015 500.094H910.895L967.426 370.477H778.793C764.329 370.308 761.751 360.187 764.994 352.344M603.964 46.0513C589.415 21.5108 556.575 0.174805 512.931 0.174805H458.811C418.906 16.1978 180.476 111.999 150.715 123.89C124.61 134.347 67.413 149.02 20.7744 149.02H-36.6711L-105.589 306.975C-194.876 510.889 9.80109 500.01 9.80109 500.01H246.652C246.652 500.01 454.736 510.552 514.925 363.223L594.818 180.139C615.436 135.106 629.069 81.8923 604.212 46.0513M393.549 168.501C391.887 172.212 325.296 325.021 325.296 325.021C304.597 370.812 258.956 370.56 258.956 370.56H116.962C116.962 370.56 73.566 372.079 94.0173 325.948C94.0173 325.948 165.845 161.08 169.004 154.502C173.493 144.635 188.291 129.54 218.468 129.709H367.694C388.811 129.709 403.941 142.696 393.467 168.585" fill="white" style="fill:white;fill-opacity:1;"></path></g><defs><clipPath id="clip0_86_1392"><rect width="2115.36" height="500" fill="white" style="fill:white;fill-opacity:1;" transform="translate(-700 0.174805)"></rect></clipPath></defs></svg> 